<svg id="Layer_1" data-name="Layer 1" xmlns="http://www.w3.org/2000/svg" viewBox="0 0 512 512"><defs><style>.cls-1{fill:#c0321e;}</style></defs><title>fully-furnished</title><path d="M151.29688,280.04687a7.51861,7.51861,0,0,0-7.51563-7.51563h-8.51563v-8.51562a7.51562,7.51562,0,1,0-15.03124,0h0v8.51562h-8.51563a7.51563,7.51563,0,1,0-.017,15.03125h8.53266v8.51563a7.51562,7.51562,0,0,0,15.03124,0v-8.51563h8.51563A7.51612,7.51612,0,0,0,151.29688,280.04687Z"/><path d="M239.96875,287.56249h8.51563v8.51563a7.51562,7.51562,0,0,0,15.03124,0v-8.51563h8.51563a7.51563,7.51563,0,0,0,.017-15.03125h-8.53266v-8.51562a7.51562,7.51562,0,1,0-15.03123-.013v8.52862h-8.51562a7.51563,7.51563,0,1,0-.017,15.03125h.017Z"/><path d="M507.17188,497.93749l-55.28907-31.14843V143.28123h52.60157a7.58964,7.58964,0,0,0,7.38671-8.90235l-24.04687-128.25A7.51154,7.51154,0,0,0,480.4375,0H384.25a7.51467,7.51467,0,0,0-7.38672,6.12891l-24.04687,128.25a7.5917,7.5917,0,0,0,7.38671,8.90234H384.75v25.04688h-.5a7.51562,7.51562,0,0,0,0,15.03125h.5v24.54687a7.51562,7.51562,0,1,0,15.03125,0V183.35937h.5a7.51563,7.51563,0,0,0,.017-15.03125h-.517V143.28123h13.02344V467.17968L383.75,484.27343V360.20312a47.64906,47.64906,0,0,0-47.59375-47.59375c-.168,0-.332.01172-.5.01562V256a55.67114,55.67114,0,0,0-55.60937-55.60937H103.70312A55.67112,55.67112,0,0,0,48.09375,256v56.625c-.168-.0039-.332-.01562-.5-.01562A47.64906,47.64906,0,0,0,0,360.20312V504.48437A7.51359,7.51359,0,0,0,7.51157,512H503.48438a7.51522,7.51522,0,0,0,3.6875-14.0625ZM15.03125,360.20312a32.5625,32.5625,0,0,1,65.125,0V496.96874h-65.125ZM95.1875,431.84374h24.87891a7.51563,7.51563,0,0,0,0-15.03125H95.1875V360.20312A47.66619,47.66619,0,0,0,63.125,315.22656V256a40.62389,40.62389,0,0,1,40.57812-40.57812H280.04688A40.62387,40.62387,0,0,1,320.625,256v59.22657a47.66619,47.66619,0,0,0-32.0625,44.97656v56.60937H155.47266a7.51563,7.51563,0,1,0-.017,15.03125H288.56641v65.125H95.1875Zm273.53125,65.125h-65.125V360.20312a32.5625,32.5625,0,0,1,65.125,0Zm21.76953-481.9375h83.71484L495.42969,128.25H369.25781Zm46.36328,128.25v321.625h-9.01562v-321.625Zm-45.043,353.6875,28.957-17.03125h23.60157c.07422,0,.14453-.00781.21484-.01172l30.25391,17.043Z"/><path d="M95.6875,159.31248h192.375a7.5186,7.5186,0,0,0,7.51562-7.51563V7.51561A7.5161,7.5161,0,0,0,288.0625,0H95.6875a7.51362,7.51362,0,0,0-7.51562,7.51158v144.2853A7.51609,7.51609,0,0,0,95.6875,159.31248Zm7.51562-144.28125H280.54688v129.25H103.20312Z"/><path d="M264.01562,24.04686H119.73438a7.5136,7.5136,0,0,0-7.51563,7.51157V127.75a7.51611,7.51611,0,0,0,7.51563,7.51563H264.01562a7.51863,7.51863,0,0,0,7.51563-7.51563V31.56248a7.5136,7.5136,0,0,0-7.51157-7.51562ZM256.5,120.23436H127.25V39.07811H256.5Z"/><path class="cls-1" d="M188.07812,110.18749a7.57982,7.57982,0,0,0,7.59377,0c8.39453-4.918,35.78123-22.23047,35.78123-38.54687,0-6.86328-3.55859-15.69531-11.5117-19.95313-5.457-2.918-14.59765-4.51954-28.0664,3.10937-13.46875-7.6328-22.61329-6.02735-28.06641-3.10937-7.95313,4.25782-11.5117,13.08985-11.5117,19.95313C152.29688,87.96092,179.68359,105.26952,188.07812,110.18749ZM170.90234,64.9414a6.31349,6.31349,0,0,1,3.01955-.668c3.46094,0,8.27734,1.92968,13.78516,5.60156a7.51027,7.51027,0,0,0,8.33593,0c7.36719-4.91015,13.4961-6.71094,16.80469-4.9375,2.46485,1.32032,3.57422,4.71485,3.57422,6.70312,0,4.27735-11.28516,14.82813-24.5508,23.25782-13.26562-8.418-24.543-18.96875-24.543-23.25782C167.32812,69.65234,168.4375,66.25781,170.90234,64.9414Z"/><path class="cls-1" d="M187,79.65624l-19.67188-8.01563"/><polygon class="cls-1" points="390.488 15.031 474.203 15.031 495.43 128.25 369.258 128.25 390.488 15.031"/><polygon class="cls-1" points="391.809 496.969 420.766 479.937 444.582 479.926 474.836 496.969 391.809 496.969"/></svg>