<svg id="Слой_1" data-name="Слой 1" xmlns="http://www.w3.org/2000/svg" viewBox="0 0 513.37537 75.22871">
    <defs><style>.cls-1{fill:#000000;}.cls-2{fill:#fff;}.cls-3{fill:#fff;}.cls-4{fill:#AF332B;}</style></defs>
    <path class="cls-4" d="M296.23465,11.24633V60.8285a48.97678,48.97678,0,0,1-25.00552-1.48233,18.47336,18.47336,0,0,1,.03122-3.20554c.41732-2.31922-.83622-3.3332-2.73969-4.1078-5.33292-2.1702-10.91357-2.18263-16.51829-1.99142-1.86069.06349-3.716.28162-5.75724.44361v24.3892h-11.969c-.409-.51938-.18328-1.18493-.18364-1.79423q-.021-34.16958-.04987-68.33908c-.00389-1.59671.45223-2.16933,2.02643-2.51867C247.05652-.216,258.03781-1.029,269.09915,1.7477c1.59711.40091,2.33167.9555,2.26608,2.82977-.17349,4.95787-.068,5.01176,4.75217,6.41786A35.062,35.062,0,0,0,296.23465,11.24633ZM246.24709,25.22779V38.13621c1.48611-.08117,2.76585-.12579,4.04127-.225a57.53767,57.53767,0,0,1,17.50714,1.271c3.51013.81054,3.47376.8568,3.519,4.39658.01285,1.00743-.424,2.17941.83521,2.87706,3.7572,2.08176,7.829,2.80562,12.277,3.11071-.14334-4.32693.20434-8.38576-.18674-12.446.31641-4.1104.12393-8.2159.108-12.43009-1.70163-.16863-3.19736-.2638-4.67578-.47792-1.55566-.22531-3.10721-.51064-4.63861-.86434-3.80682-.87925-3.95374-.909-3.74292-4.83357a3.66693,3.66693,0,0,0-2.65564-4.17993c-7.32181-2.8492-14.81609-2.31334-22.38791-1.54517Z"/>
    <path class="cls-1" d="M30.02549,75.02378C15.02545,75.96708-.258,62.1997.0033,45.11744a30.0446,30.0446,0,0,1,60.08855.22972C60.15622,62.7634,44.59084,75.99018,30.02549,75.02378ZM47.97732,45.32364A17.92317,17.92317,0,1,0,30.04684,63.05582,17.92294,17.92294,0,0,0,47.97732,45.32364Z"/>
    <path class="cls-1" d="M348.44247,75.02378c-15.04269.91368-30.182-12.97578-29.92129-29.7742a30.03776,30.03776,0,0,1,60.07532-.03507C378.70749,63.01129,362.89523,76.02284,348.44247,75.02378Zm.05622-11.96893a17.87031,17.87031,0,1,0-17.84436-17.87862,17.76816,17.76816,0,0,0,17.65722,17.87844Q348.40512,63.05526,348.49869,63.05485Z"/>
    <path class="cls-1" d="M87.987,15.3444H99.86945v2.3943c0,10.96029-.03407,21.92072.011,32.88084.03511,8.54319,7.52378,14.317,15.38339,11.93932a12.02738,12.02738,0,0,0,8.4432-11.461c.02439-11.10352.00742-22.20713.00743-33.31069V15.36932h11.91427c.41419.41186.22319.94145.2237,1.41436.012,11.31846.056,22.63719-.00328,33.95535-.0638,12.17452-7.84543,21.8725-19.57825,23.9796C99.88007,77.66225,88.01506,65.0738,87.8266,52.42943c-.18147-12.17515-.02965-24.35523-.01812-36.53314A2.45825,2.45825,0,0,1,87.987,15.3444Z"/>
    <path class="cls-1" d="M406.33524,57.15159h11.73449c.43741.41984.3776,1.10591.56385,1.70032a5.90929,5.90929,0,0,0,7.36474,3.94973q.077-.02325.15338-.04858a6.02739,6.02739,0,0,0,3.77137-7.64431q-.02875-.08481-.06006-.16875a4.8677,4.8677,0,0,0-3.071-2.77561c-3.32294-1.32637-6.86123-2.11354-10.02093-3.831-4.79187-2.60464-8.93882-5.91717-10.12778-11.57053a17.77437,17.77437,0,0,1,9.88412-19.7696A18.07127,18.07127,0,0,1,438.305,21.97785a17.31214,17.31214,0,0,1,4.00949,11.20031h-11.915c-.12293-.43605-.2594-.97337-.42582-1.50129a5.87727,5.87727,0,0,0-11.32974-.06256c-.80167,2.71351.11267,4.95649,2.614,6.62546a24.80607,24.80607,0,0,0,6.92753,2.83328,24.99123,24.99123,0,0,1,8.81515,4.76638c8.33743,6.85754,5.88489,18.68818-.20566,24.3062-5.58908,5.15539-12.09436,6.32927-18.95425,3.79424-7.03986-2.60154-10.89682-8.09916-11.59076-15.64862A7.30294,7.30294,0,0,1,406.33524,57.15159Z"/>
    <path class="cls-1" d="M192.85139,74.92594H180.66891V27.42172H165.728V15.38805h41.95279V27.18369h-14.8294Z"/>
    <path class="cls-1" d="M486.50006,27.29966h-14.9176V15.33818h41.79291V27.24589H498.53476V74.923h-12.0347Z"/>
    <path class="cls-2" d="M284.23993,37.12051c.39108,4.06025.0434,8.11908.18674,12.446-4.44809-.30509-8.51984-1.029-12.277-3.11071-1.25916-.69765-.82233-1.86963-.83521-2.87706-.04516-3.53978-.00882-3.586-3.519-4.39658a57.53752,57.53752,0,0,0-17.50712-1.271c-1.27544.09926-2.55518.14388-4.04128.225V25.22778c1.28269-.11048,2.56392-.24344,3.84834-.32751,5.227-.3421,10.44582-.41792,15.56719.92106,5.41131,1.41481,5.62707,1.65008,5.59765,7.11616a2.05256,2.05256,0,0,0,1.703,2.35069q.04413.007.08853.01217A50.79971,50.79971,0,0,0,284.23993,37.12051Z"/>
    <path class="cls-3" d="M284.23993,37.12051a50.79971,50.79971,0,0,1-11.18811-1.82016,2.05254,2.05254,0,0,1-1.80371-2.27435q.00513-.04439.01217-.08851c.02942-5.46608-.18634-5.70135-5.59765-7.11616-5.12134-1.339-10.34017-1.26316-15.56717-.92106-1.28442.08407-2.56566.217-3.84834.32751V12.78949c7.57182-.76817,15.06608-1.304,22.38792,1.54517a3.66693,3.66693,0,0,1,2.65564,4.17993c-.21082,3.92458-.06393,3.95432,3.74292,4.83357,1.5314.3537,3.083.639,4.63861.86434,1.47842.21412,2.97418.30929,4.67578.47792C284.36386,28.90461,284.55634,33.01011,284.23993,37.12051Z"/>
</svg>
