<svg xmlns="http://www.w3.org/2000/svg" viewBox="0 0 108.068 113.615">
  <defs>
    <style>
      .cls-1 {
        fill: #c0321e;
      }

      .cls-2 {
        fill: #fff;
      }
    </style>
  </defs>
  <g id="invoice" transform="translate(-0.003)">
    <g id="Group_85" data-name="Group 85" transform="translate(0.003 0)">
      <g id="Group_84" data-name="Group 84">
        <path id="Path_64" data-name="Path 64" d="M100.425,13.709a1.685,1.685,0,0,0-1.732.084l-4.13,2.752-4.129-2.752a1.681,1.681,0,0,0-1.873,0l-4.13,2.752L80.3,13.793a1.681,1.681,0,0,0-1.873,0L74.3,16.546l-3.377-2.251V1.69A1.688,1.688,0,0,0,68.04.5l-2.4,2.4L61.729.285a1.681,1.681,0,0,0-1.873,0l-4.13,2.752L51.6.285a1.681,1.681,0,0,0-1.873,0L45.594,3.037,41.466.285a1.681,1.681,0,0,0-1.873,0l-4.13,2.752L31.334.285a1.681,1.681,0,0,0-1.873,0L25.333,3.037,21.206.285a1.681,1.681,0,0,0-1.873,0L15.2,3.037,11.07.285A1.681,1.681,0,0,0,9.2.285L5.283,2.894,2.885.5A1.688,1.688,0,0,0,0,1.69V97.938A10.142,10.142,0,0,0,10.134,108.07h47.28v-3.377H10.134A6.761,6.761,0,0,1,3.38,97.938V5.766l.495.495a1.692,1.692,0,0,0,2.131.211l4.127-2.752,4.13,2.752a1.681,1.681,0,0,0,1.873,0l4.13-2.752,4.127,2.752a1.681,1.681,0,0,0,1.873,0l4.129-2.752,4.129,2.752a1.681,1.681,0,0,0,1.873,0l4.134-2.752,4.129,2.752a1.681,1.681,0,0,0,1.873,0l4.127-2.752,4.13,2.752a1.681,1.681,0,0,0,1.873,0l4.132-2.752,4.127,2.752a1.686,1.686,0,0,0,2.131-.211l.5-.5V40.527h3.377V18.353l2.44,1.628a1.681,1.681,0,0,0,1.873,0l4.13-2.752,4.129,2.752a1.681,1.681,0,0,0,1.873,0l4.13-2.752,4.129,2.752a1.681,1.681,0,0,0,1.873,0l2.442-1.628V48.97h3.377V15.2A1.689,1.689,0,0,0,100.425,13.709Z" transform="translate(-0.003 0)"/>
      </g>
    </g>
    <g id="Group_87" data-name="Group 87" transform="translate(23.643 10.133)">
      <g id="Group_86" data-name="Group 86">
        <path id="Path_65" data-name="Path 65" d="M123.823,48.006a11.82,11.82,0,1,0,11.82,11.82A11.835,11.835,0,0,0,123.823,48.006Zm0,20.263a8.443,8.443,0,1,1,8.443-8.443A8.452,8.452,0,0,1,123.823,68.269Z" transform="translate(-112.003 -48.006)"/>
      </g>
    </g>
    <g id="Group_89" data-name="Group 89" transform="translate(23.643 37.15)">
      <g id="Group_88" data-name="Group 88">
        <rect id="Rectangle_27" data-name="Rectangle 27" width="25.329" height="3.377"/>
      </g>
    </g>
    <g id="Group_91" data-name="Group 91" transform="translate(20.266 43.904)">
      <g id="Group_90" data-name="Group 90">
        <rect id="Rectangle_28" data-name="Rectangle 28" width="32.083" height="3.377"/>
      </g>
    </g>
    <g id="Group_93" data-name="Group 93" transform="translate(10.134 55.724)">
      <g id="Group_92" data-name="Group 92">
        <rect id="Rectangle_29" data-name="Rectangle 29" width="30.394" height="3.377"/>
      </g>
    </g>
    <g id="Group_95" data-name="Group 95" transform="translate(10.134 64.167)">
      <g id="Group_94" data-name="Group 94">
        <rect id="Rectangle_30" data-name="Rectangle 30" width="30.394" height="3.377"/>
      </g>
    </g>
    <g id="Group_97" data-name="Group 97" transform="translate(10.134 72.61)">
      <g id="Group_96" data-name="Group 96">
        <rect id="Rectangle_31" data-name="Rectangle 31" width="30.394" height="3.377"/>
      </g>
    </g>
    <g id="Group_99" data-name="Group 99" transform="translate(10.134 81.053)">
      <g id="Group_98" data-name="Group 98">
        <rect id="Rectangle_32" data-name="Rectangle 32" width="30.394" height="3.377"/>
      </g>
    </g>
    <g id="Group_101" data-name="Group 101" transform="translate(10.134 89.495)">
      <g id="Group_100" data-name="Group 100">
        <rect id="Rectangle_33" data-name="Rectangle 33" width="30.394" height="3.377"/>
      </g>
    </g>
    <g id="Group_103" data-name="Group 103" transform="translate(43.906 43.904)">
      <g id="Group_102" data-name="Group 102">
        <path id="Path_66" data-name="Path 66" d="M240.086,208.006a32.083,32.083,0,1,0,32.083,32.083A32.118,32.118,0,0,0,240.086,208.006Zm0,60.788a28.706,28.706,0,1,1,28.706-28.706A28.738,28.738,0,0,1,240.086,268.794Z" transform="translate(-208.003 -208.006)"/>
      </g>
    </g>
    <g id="Group_108" data-name="Group 108" transform="translate(7.174 -8.219)">
      <path id="Path_70" data-name="Path 70" class="cls-1" d="M173.572,198.027h-7.386v-7.386h5.54a1.847,1.847,0,0,0,0-3.693H156.952a1.847,1.847,0,0,0,0,3.693h5.54v7.386H138.486a1.744,1.744,0,0,0-1.846,1.847v11.079a1.744,1.744,0,0,0,1.846,1.847h32.5a.794.794,0,0,1,.739.739v10.341a1.744,1.744,0,0,0,1.846,1.846h11.079a1.744,1.744,0,0,0,1.847-1.846V210.953A12.846,12.846,0,0,0,173.572,198.027Zm9.233,24.005h-7.386v-8.494a4.494,4.494,0,0,0-4.432-4.432H140.333V201.72h33.238a9.143,9.143,0,0,1,9.233,9.233v11.079Z" transform="translate(-96.423 -123.835)"/>
      <path id="Path_73" data-name="Path 73" class="cls-2" d="M82.688,107.713l-4.2,3.547-.7,3.353.7,3.263,2.922,2.032H85.06l2.806-3.284v-3.182L86.048,110.2Z"/>
      <path id="Path_72" data-name="Path 72" class="cls-1" d="M43.01,83.7l.13,10.287H75.424l2.013,1.452.745,1.862v10.074H89.118V93.99L87.99,88.648l-3.366-3.18L80.747,83.7H43.01Z" transform="translate(-0.993 -7.322)"/>
      <path id="Path_71" data-name="Path 71" d="M308.622,383.767a1.785,1.785,0,0,0-2.585,0l-3.693,3.693a7.022,7.022,0,0,0,0,9.971,7.135,7.135,0,0,0,4.986,2.031,6.421,6.421,0,0,0,4.986-2.031,7.022,7.022,0,0,0,0-9.971Zm1.108,11.079a3.395,3.395,0,0,1-4.8-4.8l2.4-2.4,2.4,2.4A3.457,3.457,0,0,1,309.73,394.847Z" transform="translate(-224.641 -277.63)"/>
    </g>
  </g>
</svg>
