<svg id="Layer_1" data-name="Layer 1" xmlns="http://www.w3.org/2000/svg" xmlns:xlink="http://www.w3.org/1999/xlink" viewBox="0 0 150.21 251.86">
    <defs>
        <style>.cls-1,.cls-3,.cls-7{fill:none;}.cls-2,.cls-5{fill:#fff;}.cls-3,.cls-5,.cls-7{stroke:#c0321e;}.cls-3{stroke-linecap:round;stroke-linejoin:round;stroke-width:2.33px;stroke-dasharray:0.47 4.65;}.cls-4{clip-path:url(#clip-path);}.cls-5,.cls-7{stroke-miterlimit:10;}.cls-5{stroke-width:1.66px;}.cls-6{fill:#c0321e;}.cls-7{stroke-width:2.49px;}</style>
        <clipPath id="clip-path"><polygon class="cls-1" points="132.03 235.28 25.94 243.96 25.94 -37.73 127.21 -37.73 132.03 235.28"/></clipPath>
    </defs>
    <rect class="cls-2" x="-432.82" y="-59.26" width="1023.24" height="924.99"/>
    <polygon class="cls-3" points="124.33 189.12 141 179.63 126.67 166.89 138.04 151.45 119.76 145.64 123.87 126.91 104.81 129.04 100.94 110.25 84.4 119.95 73.22 104.36 62.05 119.95 45.51 110.25 41.64 129.04 22.58 126.91 26.69 145.64 8.41 151.45 19.78 166.89 5.45 179.63 22.12 189.12 14.21 206.58 33.29 208.47 33.17 227.64 51.37 221.6 59.06 239.17 73.22 226.25 87.39 239.17 95.08 221.6 113.28 227.64 113.16 208.47 132.24 206.58 124.33 189.12"/>

    <g class="cls-4">
        <polygon class="cls-5" points="47.03 163.7 57.77 151.17 57.18 108.79 73.29 74.18 74.03 13.6 80.45 77.16 94.78 108.2 97.16 151.17 107.31 161.91 112.08 292.61 48.82 303.35 47.03 163.7"/>
        <polygon class="cls-6" points="73.15 86.41 79.72 85.82 76.14 76.86 73.15 86.41"/>
        <polygon class="cls-6" points="73.15 100.74 79.72 100.14 76.14 90.59 73.15 100.74"/>
        <polygon class="cls-6" points="70.17 101.93 67.18 95.96 65.39 105.51 70.17 101.93"/>
        <polygon class="cls-6" points="82.1 101.93 87.47 106.11 85.09 95.96 82.1 101.93"/>
        <polygon class="cls-6" points="72.56 115.06 79.12 115.06 76.14 103.72 72.56 115.06"/>
        <polygon class="cls-6" points="65.39 118.64 70.17 116.25 65.39 109.69 65.39 118.64"/>
        <polygon class="cls-6" points="81.51 116.25 85.68 118.64 85.09 107.9 81.51 116.25"/>
        <polygon class="cls-6" points="88.07 118.64 92.02 123.44 92.25 113.87 88.07 118.64"/>
        <polygon class="cls-6" points="65.39 118.64 60.02 115.06 60.68 122.42 65.39 118.64"/>
        <polygon class="cls-6" points="73.75 135.95 79.72 136.54 76.14 121.63 73.75 135.95"/>
        <polygon class="cls-6" points="82.1 136.54 87.47 138.34 88.07 126.4 82.1 136.54"/>
        <polygon class="cls-6" points="82.7 162.21 89.86 164.59 89.86 147.88 82.7 162.21"/>
        <polygon class="cls-6" points="72.56 161.61 81.24 161.52 77.33 143.71 72.56 161.61"/>
        <polygon class="cls-6" points="79.55 185.78 82.7 187.87 87.47 190.26 87.47 170.56 79.55 185.78"/>
        <polygon class="cls-6" points="90.46 192.64 94.04 196.82 97.02 201 101.2 182.5 90.46 192.64"/>
        <polygon class="cls-6" points="97.62 205.18 100.6 214.13 105.38 200.4 97.62 205.18"/>
        <polygon class="cls-6" points="91.06 166.98 98.22 171.76 100.01 160.42 91.06 166.98"/>
        <polygon class="cls-6" points="54.05 212.34 57.04 204.58 48.09 200.4 54.05 212.34"/>
        <polygon class="cls-6" points="55.25 172.35 61.81 167.58 53.46 161.01 55.25 172.35"/>
        <polygon class="cls-6" points="63.01 165.19 69.57 162.8 61.81 149.08 63.01 165.19"/>
        <polygon class="cls-6" points="89.86 139.53 93.44 143.11 94.64 134.75 89.86 139.53"/>
        <polygon class="cls-6" points="71.36 137.14 64.8 127.59 67.18 140.13 71.36 137.14"/>
        <polygon class="cls-6" points="66.59 190.26 69.57 188.47 72.56 187.27 76.18 186.46 66.59 170.56 66.59 190.26"/>
        <polygon class="cls-6" points="63.01 192.64 52.86 181.31 57.63 199.81 63.01 192.64"/>
        <polygon class="cls-6" points="60.02 137.14 64.72 139.95 62.03 144.33 60.02 137.14"/>

        <path class="cls-6" d="M58.46,289.58c-.83-11.79-1.23-23.56-.09-35.35a224.42,224.42,0,0,1,6.86-36.71c1.19-4.37,2.77-9.21,6.26-12.31a10,10,0,0,1,11.87-.68c4.24,2.65,6.65,7.46,8,12.11,1.79,6.11,2.55,12.6,3.32,18.9a339.77,339.77,0,0,1,2.23,43.26,1.49,1.49,0,0,0,3,0A345.63,345.63,0,0,0,98,238a162.92,162.92,0,0,0-3.13-19.89c-1.27-5.26-3.45-10.56-7.54-14.27A13.68,13.68,0,0,0,74,200.48c-4.75,1.46-7.67,5.66-9.53,10-2.29,5.4-3.46,11.3-4.73,17-1.44,6.49-2.64,13-3.52,19.61a171.54,171.54,0,0,0-1.61,22.53c0,6.64.41,13.31.88,19.93.14,1.91,3.12,1.92,3,0Z"/>
        <path class="cls-7" d="M50.93,296.89l13.77-1.27q-.26-25.44,1.67-50.84c.76-10,2.23-21,9.63-27.76a7,7,0,0,1,4-2.09c3.36-.27,5.62,3.32,6.81,6.48,7.46,19.85,5,41.85,7.17,62.93a3.29,3.29,0,0,0,.65,1.93,3.21,3.21,0,0,0,2.48.61l13.13-.41"/>
        <rect class="cls-2" x="80.78" y="241" width="4.96" height="10.21"/>
        <rect class="cls-2" x="71.88" y="242.03" width="4.96" height="10.21"/>
    </g>
</svg>
