<svg id="Layer_1" data-name="Layer 1" xmlns="http://www.w3.org/2000/svg" viewBox="0 0 135.53 149.08"><defs><style>.cls-1,.cls-2,.cls-4{fill:#fff;stroke:#c43228;}.cls-1,.cls-4{stroke-linecap:round;stroke-linejoin:round;stroke-width:2.25px;}.cls-1{stroke-dasharray:0.45 4.49;}.cls-2{stroke-miterlimit:10;stroke-width:1.3px;}.cls-3{fill:#bb321e;}</style></defs><rect class="cls-1" x="46.09" y="35.49" width="75.29" height="70.76"/><rect class="cls-1" x="14.23" y="19.81" width="75.29" height="114.35"/><circle class="cls-2" cx="95.14" cy="94.12" r="32.37" transform="translate(-8.81 9.83) rotate(-5.65)"/><rect class="cls-3" x="88.24" y="71.76" width="14.62" height="2.55"/><rect class="cls-3" x="94.36" y="72.27" width="2.38" height="10.54"/><path class="cls-3" d="M112.72,86.32a10.5,10.5,0,0,0-.31-1.26,7.06,7.06,0,0,0-1.89-2.93,7.49,7.49,0,0,0-6-1.54,1.94,1.94,0,0,1-.32,0H74V91.66H101.2v10.2h11.7V87.74S112.8,86.83,112.72,86.32Z"/><circle class="cls-4" cx="53.46" cy="41.76" r="12.2"/><line class="cls-4" x1="39.85" y1="65.13" x2="66.52" y2="65.13"/><line class="cls-4" x1="36.37" y1="72.98" x2="70.01" y2="72.98"/><line class="cls-4" x1="25.38" y1="85.36" x2="57.46" y2="85.36"/><line class="cls-4" x1="25.38" y1="94.42" x2="57.46" y2="94.42"/><line class="cls-4" x1="25.38" y1="103.48" x2="57.46" y2="103.48"/><line class="cls-4" x1="25.38" y1="112.55" x2="57.46" y2="112.55"/><path class="cls-3" d="M106.68,105.64,103.57,113a3.67,3.67,0,0,0-.44,1.67c0,2.12,1,4.19,3.55,4.24a3.53,3.53,0,0,0,3.78-3.44c0-.19,0-.48,0-.79a4.23,4.23,0,0,0-.16-1v0l0-.14-.06-.16-2.92-7.65C107.15,105.35,106.94,105,106.68,105.64Z"/></svg>