<svg id="Layer_1" data-name="Layer 1" xmlns="http://www.w3.org/2000/svg" viewBox="0 0 155.01 153.32"><defs><style>.cls-1,.cls-3,.cls-4,.cls-5{fill:#fff;}.cls-1,.cls-4,.cls-5{stroke:#c43228;}.cls-1,.cls-4{stroke-linecap:round;stroke-linejoin:round;}.cls-1{stroke-width:2.37px;stroke-dasharray:0.47 4.73;}.cls-2{fill:#bb321e;}.cls-4{stroke-width:3.2px;}.cls-5{stroke-miterlimit:10;stroke-width:1.37px;}</style></defs><path class="cls-1" d="M70.16,70a11.84,11.84,0,1,0-21.73-6.52c0,.2,0,.39,0,.59a14.53,14.53,0,1,0,7.79,19.77A11.84,11.84,0,1,0,70.16,70ZM58,75.05c-.15.23-.3.47-.44.72,0-.29-.08-.57-.13-.86Z"/><polygon class="cls-2" points="85.68 143.97 31.95 143.97 28.87 89.57 89.5 89.57 85.68 143.97"/><rect class="cls-3" x="73.9" y="141.76" width="15.71" height="5.93"/><rect class="cls-1" x="102.9" y="70.75" width="7.25" height="56.14"/><rect class="cls-1" x="73.56" y="123.79" width="58.34" height="19.48"/><polygon class="cls-1" points="129.7 64.09 82.47 64.09 79.62 35.76 133.76 35.76 129.7 64.09"/><line class="cls-4" x1="57.16" y1="26.95" x2="57.16" y2="36.01"/><line class="cls-4" x1="52.71" y1="31.56" x2="61.27" y2="31.56"/><line class="cls-4" x1="23.03" y1="48.33" x2="23.03" y2="57.4"/><line class="cls-4" x1="18.58" y1="52.95" x2="27.15" y2="52.95"/><line class="cls-4" x1="126.57" y1="81.9" x2="126.57" y2="90.96"/><line class="cls-4" x1="122.12" y1="86.51" x2="130.69" y2="86.51"/><rect class="cls-2" x="81.23" y="62.12" width="49.92" height="10.54"/><path class="cls-5" d="M130.21,103.28H97a2.11,2.11,0,0,0-2.11,2.1v3.36A2.12,2.12,0,0,0,97,110.85h24.64a2.12,2.12,0,0,1,2.11,2.11v1.85a2.1,2.1,0,0,1-1.84,2.08H72.71v7.58h59.61V105.38A2.1,2.1,0,0,0,130.21,103.28Z"/><path class="cls-2" d="M51.94,82.53h-.11V100.2a5,5,0,0,0,.11-1Z"/><path class="cls-2" d="M57.53,77.25v0h2.13l-.21,0Z"/><path class="cls-2" d="M51.83,82.38v.15h.11V81.34A5.1,5.1,0,0,0,51.83,82.38Z"/><path class="cls-2" d="M56.75,77.27h.78v0H57Z"/><rect class="cls-3" x="36.45" y="67.83" width="30.86" height="11.84"/><rect class="cls-3" x="51.94" y="73.7" width="13.62" height="7.19"/><polygon class="cls-3" points="89.44 89.41 55.23 89.31 55.23 83.46 57.09 79.93 89.67 80.02 89.44 89.41"/><rect class="cls-5" x="24.92" y="78.3" width="68.1" height="10.8"/><path class="cls-1" d="M37.1,71s-.58,9.87-.58,10.89v28.91a6.33,6.33,0,0,0,6.33,6.33h3.08a6.34,6.34,0,0,0,6.21-5V85.4a6,6,0,0,1,.13-1.28c.57-2.8,2.93-4.15,5.87-4.27.09,0,.25-.78.33-.78h.71s1-.32,1-.31L57.76,71Z"/><polygon class="cls-3" points="67.37 76.83 40.7 78.65 36.68 78.62 36.68 77.63 34.08 77.61 33.63 70.89 35.46 67.35 67.59 67.45 67.37 76.83"/><rect class="cls-3" x="61.45" y="81.39" width="2.67" height="4.78"/></svg>