<svg xmlns="http://www.w3.org/2000/svg" viewBox="0 0 81.335 99.151">
  <defs>
    <style>
      .cls-1 {
        fill: #c0321e;
      }

      .cls-2 {
        fill: #fff;
      }
    </style>
  </defs>
  <g id="shield" transform="translate(-46)">
    <path id="Path_55" data-name="Path 55" class="cls-1" d="M147.967,50H106A19.471,19.471,0,0,1,96,60V85.476a46.293,46.293,0,0,0,30.985,43.909,46.293,46.293,0,0,0,30.985-43.909V60A19.471,19.471,0,0,1,147.967,50Z" transform="translate(-40.317 -40.317)"/>
    <path id="Path_56" data-name="Path 56" class="cls-2" d="M191.492,156A15.492,15.492,0,1,1,176,171.492,15.51,15.51,0,0,1,191.492,156Z" transform="translate(-104.825 -125.79)"/>
    <path id="Path_57" data-name="Path 57" d="M247.751,43.869a1.934,1.934,0,1,0-1.741-1.925A1.931,1.931,0,0,0,247.751,43.869Z" transform="translate(-161.277 -32.262)"/>
    <path id="Path_58" data-name="Path 58" d="M125.4,11.619a9.694,9.694,0,0,1-9.683-9.683A1.937,1.937,0,0,0,113.779,0H59.556a1.937,1.937,0,0,0-1.937,1.937,9.694,9.694,0,0,1-9.683,9.683A1.937,1.937,0,0,0,46,13.556v31.6A56.25,56.25,0,0,0,86.111,99.069a1.936,1.936,0,0,0,1.113,0,56.256,56.256,0,0,0,40.111-53.911v-31.6A1.937,1.937,0,0,0,125.4,11.619Zm-1.937,33.539A52.08,52.08,0,0,1,86.667,95.189,52.363,52.363,0,0,1,49.873,45.158v-29.8A13.588,13.588,0,0,0,61.354,3.873H111.98a13.588,13.588,0,0,0,11.481,11.481Z"/>
    <path id="Path_59" data-name="Path 59" d="M141.678,41.16A1.937,1.937,0,0,0,139.9,40h-13.24a1.937,1.937,0,1,0,0,3.873h12.016a21.289,21.289,0,0,0,9.29,9.29V77.412a44.114,44.114,0,0,1-29.048,41.849A44.114,44.114,0,0,1,89.873,77.412V53.163a21.29,21.29,0,0,0,9.29-9.29h12.016a1.937,1.937,0,1,0,0-3.873H97.939a1.937,1.937,0,0,0-1.774,1.16,17.444,17.444,0,0,1-9.005,9.005A1.937,1.937,0,0,0,86,51.939V77.412a48.208,48.208,0,0,0,32.275,45.735,1.936,1.936,0,0,0,1.292,0,48.208,48.208,0,0,0,32.275-45.735V51.939a1.937,1.937,0,0,0-1.16-1.774A17.444,17.444,0,0,1,141.678,41.16Z" transform="translate(-32.254 -32.254)"/>
    <path id="Path_60" data-name="Path 60" d="M166,163.429A17.429,17.429,0,1,0,183.429,146,17.449,17.449,0,0,0,166,163.429Zm30.985,0a13.556,13.556,0,1,1-13.556-13.556A13.571,13.571,0,0,1,196.985,163.429Z" transform="translate(-96.762 -117.726)"/>
    <path id="Path_61" data-name="Path 61" d="M219.305,212.377a1.937,1.937,0,0,0-2.739,2.739l3.873,3.873a1.937,1.937,0,0,0,2.739,0l9.683-9.683a1.937,1.937,0,0,0-2.739-2.739l-8.313,8.313Z" transform="translate(-137.078 -166.107)"/>
  </g>
</svg>
