<svg width="80" height="80" viewBox="0 0 80 80" fill="none" xmlns="http://www.w3.org/2000/svg">
<path d="M53.4306 7H26.6013C14.9475 7 8 13.944 8 25.592V52.376C8 64.056 14.9475 71 26.6013 71H53.3986C65.0524 71 71.9999 64.056 71.9999 52.408V25.592C72.0319 13.944 65.0845 7 53.4306 7Z" fill="#C0321E"/>
<path d="M53.1875 24.8125L27.8125 50.1875M50.4687 52C53.4896 52 55 50.4465 55 46.5625C55 42.6785 53.4896 41.125 50.4687 41.125C47.4479 41.125 45.9375 42.6785 45.9375 46.5625C45.9375 50.4465 47.4479 52 50.4687 52ZM30.5312 33.875C33.5521 33.875 35.0625 32.3214 35.0625 28.4375C35.0625 24.5536 33.5521 23 30.5312 23C27.5104 23 26 24.5536 26 28.4375C26 32.3214 27.5104 33.875 30.5312 33.875Z" stroke="white" stroke-width="4.5" stroke-linecap="round" stroke-linejoin="round"/>
</svg>
