<svg width="80" height="80" viewBox="0 0 80 80" fill="none" xmlns="http://www.w3.org/2000/svg">
<path d="M55.8342 11.8667V6.66675C55.8342 5.30008 54.7008 4.16675 53.3342 4.16675C51.9675 4.16675 50.8342 5.30008 50.8342 6.66675V11.6667H29.1676V6.66675C29.1676 5.30008 28.0343 4.16675 26.6676 4.16675C25.3009 4.16675 24.1676 5.30008 24.1676 6.66675V11.8667C15.1676 12.7001 10.8009 18.0667 10.1343 26.0334C10.0676 27.0001 10.8676 27.8001 11.8009 27.8001H68.2008C69.1675 27.8001 69.9675 26.9667 69.8675 26.0334C69.2008 18.0667 64.8342 12.7001 55.8342 11.8667Z" fill="#C0321E"/>
<path d="M63.3333 50C55.9667 50 50 55.9667 50 63.3333C50 65.8333 50.7 68.2 51.9333 70.2C54.2333 74.0667 58.4667 76.6667 63.3333 76.6667C68.2 76.6667 72.4333 74.0667 74.7333 70.2C75.9667 68.2 76.6667 65.8333 76.6667 63.3333C76.6667 55.9667 70.7 50 63.3333 50ZM70.2333 61.9L63.1333 68.4667C62.6667 68.9 62.0333 69.1333 61.4333 69.1333C60.8 69.1333 60.1667 68.9 59.6667 68.4L56.3667 65.1C55.4 64.1333 55.4 62.5333 56.3667 61.5667C57.3333 60.6 58.9333 60.6 59.9 61.5667L61.5 63.1667L66.8333 58.2333C67.8333 57.3 69.4333 57.3667 70.3667 58.3667C71.3 59.3667 71.2333 60.9333 70.2333 61.9Z" fill="#C0321E"/>
<path d="M66.6667 32.7996H13.3333C11.5 32.7996 10 34.2994 10 36.1328V56.6661C10 66.6661 15 73.3328 26.6667 73.3328H43.1C45.4 73.3328 47 71.0994 46.2667 68.9328C45.6 66.9994 45.0333 64.8661 45.0333 63.3328C45.0333 53.2328 53.2667 44.9994 63.3667 44.9994C64.3333 44.9994 65.3 45.0661 66.2333 45.2328C68.2333 45.5328 70.0333 43.9661 70.0333 41.9661V36.1661C70 34.2994 68.5 32.7996 66.6667 32.7996Z" fill="#C0321E"/>
</svg>
