<svg width="80" height="80" viewBox="0 0 80 80" fill="none" xmlns="http://www.w3.org/2000/svg">
<path d="M43.4558 11.6216L65.7499 36.9267C66.9264 38.2597 67.1838 40.08 66.4338 41.6782C65.6838 43.2763 64.0955 44.2653 62.2941 44.2653H54.1176V63.7082C54.1176 67.4994 50.9485 70.5882 47.0588 70.5882H32.9411C29.0514 70.5882 25.8823 67.4994 25.8823 63.7082V44.2653H17.7058C15.9044 44.2653 14.3161 43.2763 13.5661 41.6782C12.8161 40.08 13.0735 38.2597 14.2499 36.9267L36.5441 11.6216C37.4117 10.6397 38.6691 10.0736 39.9999 10.0736C41.3308 10.0736 42.5882 10.6397 43.4558 11.6216ZM65.8823 9.29242H14.1176C12.8161 9.29242 11.7646 8.2676 11.7646 6.99912C11.7646 5.73063 12.8161 4.70581 14.1176 4.70581H65.8823C67.1838 4.70581 68.2352 5.73063 68.2352 6.99912C68.2352 8.2676 67.1838 9.29242 65.8823 9.29242Z" fill="#C0321E"/>
</svg>
