<svg xmlns="http://www.w3.org/2000/svg" viewBox="0 0 107.782 107.781">
  <defs>
    <style>
      .cls-1 {
        fill: #c0321e;
      }
    </style>
  </defs>
  <g id="brush" transform="translate(0 -0.001)">
    <path id="Path_63" data-name="Path 63" class="cls-1" d="M4.968,51.943l4.07,53.637H51.584V84.732l2.6-4.023H60.8l1.928-28.766H35.554v9.91l-1.438,2.213H30.729l-1.87-2.213v-6.13L25.9,54.077H23.724L21.212,56.9V70.787L19.32,73.115H16.393l-1.819-2.328V51.943Z" transform="translate(0 0.001)"/>
    <rect id="Rectangle_26" data-name="Rectangle 26" class="cls-1" width="44" height="8" transform="translate(59 27.782)"/>
    <g id="Group_8" data-name="Group 8" transform="translate(0 0.001)">
      <g id="Group_7" data-name="Group 7" transform="translate(0 0)">
        <path id="Path_9" data-name="Path 9" d="M102.392,64.67H86.225V37.724h16.167a1.8,1.8,0,0,0,1.8-1.8V27.072l3.575-25.02A1.8,1.8,0,0,0,105.985,0h-50.3a1.8,1.8,0,0,0-1.778,2.051l3.575,25.02v8.856a1.8,1.8,0,0,0,1.8,1.8H75.447V64.67h-1.8a5.389,5.389,0,1,0,0,10.778h1.8v3.593H62.872l1.676-25.149h1.917a1.8,1.8,0,0,0,1.8-1.8V44.91a1.8,1.8,0,0,0-1.8-1.8H53.756a12.6,12.6,0,0,0-6.363-9.2,12.574,12.574,0,1,0-23.927-6.856,17.935,17.935,0,0,0-19.76,15.9c-.006.053-.011.105-.016.158H1.8A1.8,1.8,0,0,0,0,44.91V52.1a1.8,1.8,0,0,0,1.8,1.8H3.709L7.185,106.1a1.8,1.8,0,0,0,1.8,1.678h97a1.8,1.8,0,0,0,1.8-1.8V70.059A5.389,5.389,0,0,0,102.392,64.67ZM57.758,3.594h6.911V14.372h3.593V3.594h3.593V7.186h3.593V3.594H86.225V8.983h3.593V3.594H93.41V14.372H97V3.594h6.911L100.835,25.15h-40Zm3.318,30.538V28.743H100.6v5.389Zm21.556,3.593V64.67H79.04V37.724ZM64.669,46.706V50.3H37.723V46.706ZM23.3,30.652a14.34,14.34,0,0,1,1.469.26h.059a14.438,14.438,0,0,1,5.761,2.818l2.26-2.793a18.051,18.051,0,0,0-5.809-3.115,8.959,8.959,0,1,1,16.347,5.928,1.8,1.8,0,0,0,.9,2.695,8.982,8.982,0,0,1,5.809,6.668H35.927a1.8,1.8,0,0,0-1.8,1.8V61.077a1.8,1.8,0,1,1-3.593,0V57.484a5.389,5.389,0,0,0-10.778,0V70.059a1.8,1.8,0,1,1-3.593,0V44.91a1.8,1.8,0,0,0-1.8-1.8H7.306A14.337,14.337,0,0,1,23.3,30.652ZM3.593,50.3V46.706h8.982V50.3ZM50.3,84.43v19.76H10.663l-3.354-50.3h5.265V70.059a5.389,5.389,0,1,0,10.778,0V57.484a1.8,1.8,0,1,1,3.593,0v3.593a5.389,5.389,0,1,0,10.778,0V53.892H60.952L59.28,79.041H55.687A5.389,5.389,0,0,0,50.3,84.43Zm53.891,19.76H98.8V95.208H95.207v8.982H89.818V95.208H86.225v8.982H80.836V95.208H77.243v8.982H71.854V95.208H68.262v8.982H62.872V95.208H59.28v8.982H53.891V89.819h50.3Zm0-17.964h-50.3v-1.8a1.8,1.8,0,0,1,1.8-1.8h39.52a5.389,5.389,0,1,0,0-10.778H73.651a1.8,1.8,0,0,1,0-3.593h28.742a1.8,1.8,0,0,1,1.8,1.8ZM79.04,79.041V75.448h3.593v3.593Zm7.185,0V75.448h8.982a1.8,1.8,0,0,1,0,3.593Z" transform="translate(0 -0.001)"/>
      </g>
    </g>
    <g id="Group_10" data-name="Group 10" transform="translate(0 14.372)">
      <g id="Group_9" data-name="Group 9">
        <path id="Path_10" data-name="Path 10" d="M7.185,67.594V64H3.593v3.593H0v3.593H3.593v3.593H7.185V71.186h3.593V67.594Z" transform="translate(0 -64.001)"/>
      </g>
    </g>
    <g id="Group_12" data-name="Group 12" transform="translate(95.207 46.706)">
      <g id="Group_11" data-name="Group 11">
        <path id="Path_11" data-name="Path 11" d="M431.185,211.594V208h-3.593v3.593H424v3.593h3.593v3.593h3.593v-3.593h3.593v-3.593Z" transform="translate(-424 -208.001)"/>
      </g>
    </g>
    <g id="Group_14" data-name="Group 14" transform="translate(26.945 0.001)">
      <g id="Group_13" data-name="Group 13">
        <path id="Path_12" data-name="Path 12" d="M127.185,3.594V0h-3.593V3.594H120V7.186h3.593v3.593h3.593V7.186h3.593V3.594Z" transform="translate(-120 -0.001)"/>
      </g>
    </g>
    <g id="Group_16" data-name="Group 16" transform="translate(64.669 17.965)">
      <g id="Group_15" data-name="Group 15">
        <rect id="Rectangle_5" data-name="Rectangle 5" width="3.593" height="3.593"/>
      </g>
    </g>
  </g>
</svg>
