<svg id="Layer_1" data-name="Layer 1" xmlns="http://www.w3.org/2000/svg" viewBox="0 0 171.67 167.15"><defs><style>.cls-1,.cls-3{fill:#fff;}.cls-2{fill:#c0321e;}.cls-3{font-size:49.87px;font-family:GalanoGrotesque-ExtraLight;font-weight:200;}</style></defs><rect class="cls-1" x="-766" y="-516.67" width="1023.24" height="924.99"/><circle class="cls-2" cx="86.27" cy="87.01" r="69.53"/><polygon class="cls-1" points="140.37 -4.63 157.14 20.78 99.95 66.29 140.37 -4.63"/><text class="cls-3" transform="translate(34.9 107.04)">90%</text><path class="cls-1" d="M119.3,17.47a15.39,15.39,0,0,0,1.74,6,17,17,0,0,0,3.34,3.81q4.86,4.48,10.15,8.47a20.66,20.66,0,0,0,4.86,2.94c2.93,1.12,6.17,1,9.3.7a208.66,208.66,0,0,0,23.21-3.26,6.25,6.25,0,0,0,2.95-1.15,5.73,5.73,0,0,0,1.39-2.23c3.36-8.28,2.44-17.59,1.33-26.46C176.29-4,174.33-15.17,166.48-21.87c-5.15-4.38-12-6.09-18.74-6.94-6-.77-10.47-.15-14.08,4.87-2.61,3.63-5.7,6.84-8,10.74A49,49,0,0,0,119.3,17.47Z"/></svg>