<svg id="Layer_1" data-name="Layer 1" xmlns="http://www.w3.org/2000/svg" viewBox="0 0 190.87 186.35"><defs><style>.cls-1,.cls-2,.cls-3,.cls-4,.cls-5{fill:#fff;}.cls-2,.cls-3,.cls-4,.cls-5,.cls-6{stroke:#c0321e;}.cls-2,.cls-7{stroke-miterlimit:10;}.cls-2{stroke-width:1.28px;}.cls-3,.cls-4,.cls-5,.cls-6{stroke-linecap:round;stroke-linejoin:round;}.cls-3{stroke-width:1.3px;stroke-dasharray:0.26 2.61;}.cls-4{stroke-width:1.35px;stroke-dasharray:0.27 2.69;}.cls-5{stroke-width:1.26px;}.cls-6{fill:#c0321e;stroke-width:2.26px;}.cls-7{fill:none;stroke:#fff;stroke-width:1.43px;}</style></defs><rect class="cls-1" x="-94" y="-115.73" width="1023.24" height="924.99"/><polygon class="cls-2" points="62.78 178.82 22.43 178.82 20.15 18.14 63.2 14.17 62.78 178.82"/><polygon class="cls-1" points="82.06 185.04 5.32 184.33 5.32 175.9 83.73 172.74 82.06 185.04"/><rect class="cls-3" x="7.66" y="44.42" width="43.88" height="7.44" transform="translate(77.75 18.54) rotate(90)"/><rect class="cls-3" x="19.95" y="44.42" width="43.88" height="7.44" transform="translate(90.04 6.25) rotate(90)"/><rect class="cls-3" x="32.24" y="44.42" width="43.88" height="7.44" transform="translate(102.33 -6.04) rotate(90)"/><rect class="cls-3" x="8.01" y="94.82" width="43.88" height="7.44" transform="translate(128.49 68.59) rotate(90)"/><rect class="cls-3" x="20.3" y="94.82" width="43.88" height="7.44" transform="translate(140.78 56.3) rotate(90)"/><rect class="cls-3" x="32.59" y="94.82" width="43.88" height="7.44" transform="translate(153.07 44.01) rotate(90)"/><rect class="cls-3" x="8.01" y="146.25" width="43.88" height="7.44" transform="translate(179.92 120.02) rotate(90)"/><rect class="cls-3" x="20.3" y="146.25" width="43.88" height="7.44" transform="translate(192.21 107.73) rotate(90)"/><rect class="cls-3" x="32.59" y="146.25" width="43.88" height="7.44" transform="translate(204.5 95.44) rotate(90)"/><polygon class="cls-2" points="116.43 176.98 76.08 176.98 73.8 93.15 116.85 89.18 116.43 176.98"/><polygon class="cls-1" points="118.13 182.55 53.26 181.94 53.26 173.52 120.96 170.78 118.13 182.55"/><rect class="cls-3" x="61.31" y="120.28" width="43.88" height="7.44" transform="translate(207.25 40.75) rotate(90)"/><rect class="cls-3" x="73.6" y="120.28" width="43.88" height="7.44" transform="translate(219.54 28.46) rotate(90)"/><rect class="cls-3" x="85.89" y="120.28" width="43.88" height="7.44" transform="translate(231.83 16.17) rotate(90)"/><rect class="cls-4" x="73.02" y="157.43" width="20.47" height="7.44" transform="translate(244.4 77.9) rotate(90)"/><rect class="cls-4" x="85.31" y="157.43" width="20.47" height="7.44" transform="translate(256.69 65.61) rotate(90)"/><rect class="cls-4" x="97.6" y="157.43" width="20.47" height="7.44" transform="translate(268.98 53.32) rotate(90)"/><circle class="cls-5" cx="132.91" cy="144.86" r="32.59" transform="translate(-13.63 13.8) rotate(-5.65)"/><polygon class="cls-6" points="113.97 133.1 150.96 133.1 132.28 165.23 128.54 145.8 113.97 133.1"/><line class="cls-7" x1="127.43" y1="146.46" x2="151.88" y2="132.53"/></svg>