<svg width="80" height="80" viewBox="0 0 80 80" fill="none" xmlns="http://www.w3.org/2000/svg">
<path d="M47.3233 46.4216C47.3326 46.5606 47.3317 46.7002 47.3207 46.8392C47.0195 48.6619 47.8033 49.9433 49.3814 50.7352C50.6794 51.3866 52.0236 51.952 53.3701 52.4992C56.969 53.9617 60.5144 55.5259 63.5915 57.9539C65.4613 59.4294 67.13 61.1326 67.5225 63.5846C67.7501 65.097 67.7732 66.6332 67.5912 68.1518C67.4023 69.8149 66.2724 70.9977 64.9205 71.9299C62.7327 73.4385 60.2372 74.1598 57.679 74.6842C52.3723 75.7719 46.9895 75.9628 41.5947 75.9815C36.4902 75.9993 31.3855 76.0126 26.3122 75.3182C23.1862 74.8903 20.0937 74.3101 17.2152 72.9492C15.0352 71.9185 13.1481 70.5187 12.4876 68.0589C11.6731 65.0251 12.3479 62.2853 14.4797 59.947C16.2051 58.0543 18.3224 56.6592 20.5566 55.4811C23.5189 53.9191 26.5613 52.5093 29.567 51.0294C30.1615 50.7682 30.7373 50.4664 31.2902 50.1259C32.8758 49.049 33.3689 47.2401 32.494 45.5242C32.0548 44.7274 31.5442 43.9722 30.9684 43.2678C28.1177 39.5518 26.0647 35.4759 25.3929 30.7971C24.8603 27.0885 24.9263 23.4044 26.4211 19.8939C28.5806 14.8224 32.4923 12.0547 37.9224 11.3685C40.7055 11.0168 43.4449 11.2082 46.0654 12.2446C51.0481 14.2153 53.7012 18.0765 54.6709 23.1979C55.6196 28.2087 54.7089 32.9807 52.6 37.5601C52.4493 37.844 52.1962 38.06 51.8922 38.1644C51.1432 38.3813 50.381 38.5497 49.6104 38.6687C49.3866 38.7057 49.1317 38.5634 48.8926 38.4978C48.0523 38.2673 47.2249 37.9337 46.3694 37.8292C45.4202 37.7133 44.4449 37.7836 43.4821 37.8119C42.3544 37.83 41.2788 38.2902 40.487 39.0935C39.6952 39.8967 39.2504 40.9787 39.2485 42.1066C39.2465 43.2345 39.6876 44.3181 40.4766 45.1241C41.2656 45.93 42.3396 46.3939 43.4673 46.4159C44.7355 46.4477 46.0052 46.4216 47.3233 46.4216Z" fill="#C0321E"/>
<path d="M15.1581 32.7297C15.1573 31.5316 15.1471 30.3333 15.16 29.1352C15.1517 28.494 15.3031 27.8607 15.6006 27.2925C15.8981 26.7243 16.3323 26.2391 16.8641 25.8806C17.1126 25.6866 17.2762 25.4036 17.3202 25.0914C18.0911 14.5162 26.1605 5.77124 36.606 4.21911C42.5766 3.33605 48.6536 4.85855 53.5026 8.4523C58.3516 12.046 61.5762 17.4173 62.4683 23.3865C62.4912 23.5408 62.4968 23.6976 62.5102 23.8533C62.5962 24.8484 62.6675 25.7692 63.6904 26.4259C64.5241 26.9612 64.8052 27.9826 64.8142 28.982C64.837 31.5084 64.8653 34.036 64.8117 36.5614C64.8049 37.1901 64.6416 37.8071 64.3365 38.3568C64.0314 38.9065 63.5941 39.3715 63.0642 39.7099C62.5343 40.0482 61.9284 40.2491 61.3014 40.2945C60.6743 40.34 60.0458 40.2284 59.4727 39.97C58.9619 39.7539 58.6482 39.8307 58.2212 40.1111C55.4831 41.9092 52.4093 42.7146 49.1995 43.1182C48.8799 43.1584 48.5859 43.3983 48.2786 43.5423C47.6871 43.8196 47.1163 44.2465 46.4975 44.335C45.5532 44.47 44.5751 44.3874 43.612 44.3661C42.3378 44.3379 41.4084 43.4496 41.3524 42.2427C41.3279 41.9554 41.3614 41.6662 41.4507 41.3921C41.5401 41.118 41.6836 40.8646 41.8727 40.647C42.0618 40.4294 42.2927 40.252 42.5516 40.1252C42.8105 39.9985 43.0923 39.925 43.3801 39.9091C44.4973 39.8382 45.6177 39.8354 46.7353 39.9007C47.1034 39.9165 47.5733 40.0461 47.8032 40.2994C48.3372 40.8875 48.9302 40.8823 49.6191 40.7764C52.1622 40.3857 54.5887 39.6745 56.8011 38.3158C57.2035 38.0687 57.4383 37.8488 57.2303 37.3307C57.1464 37.0292 57.1179 36.7149 57.1464 36.4032C57.1406 34.0068 57.1519 31.6104 57.1396 29.2141C57.1135 28.5604 57.2551 27.9109 57.5509 27.3273C57.8466 26.7438 58.2868 26.2456 58.8294 25.8801C58.9357 25.7866 59.0208 25.6714 59.0791 25.5423C59.1374 25.4132 59.1674 25.2732 59.1673 25.1316C58.6668 16.7848 51.9323 9.26712 43.6605 7.79322C33.1575 5.92177 23.5021 12.3159 21.1637 22.6942C21.0724 23.0998 21.015 23.5128 20.9349 23.9211C20.7413 24.9091 20.6771 25.7547 21.7458 26.4443C22.5676 26.9746 22.8362 27.9967 22.836 29.0107C22.8354 31.5372 22.866 34.0643 22.8255 36.5902C22.7911 38.73 21.1246 40.2983 18.9914 40.289C18.4949 40.2965 18.0018 40.2058 17.5404 40.0221C17.0791 39.8385 16.6585 39.5655 16.303 39.2189C15.9474 38.8722 15.6639 38.4588 15.4686 38.0022C15.2733 37.5457 15.1701 37.0551 15.165 36.5585C15.1318 35.2831 15.1589 34.0061 15.1581 32.7297Z" fill="#C0321E"/>
</svg>
