<?xml version="1.0" encoding="UTF-8"?>
<svg width="170" height="170" xmlns="http://www.w3.org/2000/svg" clip-rule="evenodd">

 <g>
  <title>background</title>
  <rect fill="none" id="canvas_background" height="172" width="172" y="-1" x="-1"/>
 </g>
 <g>
  <title>Layer 1</title>
  <g id="svg_2" transform="matrix(1.19839 0 0 1.19839 -264.151 465.19)">
   <g transform="matrix(0.908814,0,0,0.939154,-380.091,-660.685)" id="svg_3">
    <ellipse cx="737.789" cy="365.684" rx="77.023" ry="74.535" fill="rgb(237,80,45)" id="svg_4"/>
   </g>
   <g transform="matrix(1,0,0,1,-0.533736,-0.330756)" id="svg_5">
    <g transform="matrix(1.25,0,0,1.27941,221.093,-397.937)" id="svg_6">
     <path d="m86.058998,35.764c4.912003,0 8.896004,3.984001 8.896004,8.895c-0.000999,4.910999 -3.985001,8.895 -8.896004,8.895c-4.909996,0 -8.892998,-3.984001 -8.892998,-8.895c-0.001999,-4.910999 3.981003,-8.895 8.892998,-8.895" fill="white" id="svg_7"/>
    </g>
    <g transform="matrix(1.25,0,0,1.27941,221.093,-397.937)" id="svg_8">
     <path d="m55.889999,31.292999c5.708,0 10.336998,4.630001 10.336998,10.336002c-0.000999,5.708 -4.628998,10.336998 -10.336998,10.336998c-5.707001,0 -10.334,-4.628998 -10.334,-10.336998c-0.001999,-5.706001 4.625999,-10.336002 10.334,-10.336002" fill="white" id="svg_9"/>
    </g>
    <g transform="matrix(1.25,0,0,1.27941,221.093,-397.937)" id="svg_10">
     <path d="m25.719999,35.764c4.912001,0 8.895002,3.984001 8.895002,8.895c-0.001003,4.910999 -3.984001,8.895 -8.895002,8.895c-4.910999,0 -8.893999,-3.984001 -8.893999,-8.895c-0.000999,-4.910999 3.982,-8.895 8.893999,-8.895" fill="white" id="svg_11"/>
    </g>
    <g transform="matrix(1.25,0,0,1.27941,221.093,-397.937)" id="svg_12">
     <path d="m36.877998,71.596001l0.036003,0.274002l-4.900002,3.483994c-0.298,-4.450996 -0.318001,-8.954994 0.247002,-13.050995l-0.643002,-0.092003c-0.596001,4.257004 -0.555,8.959 -0.228001,13.585999l-0.021999,0.016006l1.530998,13.278999c-3.981998,2.396996 -10.375998,2.396996 -14.358997,0l1.532,-13.278999l-0.022001,-0.016006c0.327002,-4.626999 0.368,-9.328995 -0.227999,-13.585999l-0.643,0.092003c0.566,4.096001 0.543999,8.599998 0.247999,13.050995l-4.901,-3.483994c0.797,-3.587006 -0.39,-10.544003 -1.477,-14.787003c9.151001,-2.453999 16.384001,-2.405998 25.341,0c-1.089001,5.204998 -2.195999,9.279999 -1.512001,14.513" fill="white" id="svg_13"/>
    </g>
    <g transform="matrix(1.25,0,0,1.27941,221.093,-397.937)" id="svg_14">
     <path d="m68.897003,73.250999l-5.694004,4.048004c-0.344997,-5.171005 -0.368999,-10.405006 0.287003,-15.165005l-0.745003,-0.105999c-0.695,4.946999 -0.646999,10.411003 -0.266998,15.788002l-0.025002,0.017998l1.781002,15.431c-4.628002,2.785004 -12.061001,2.785004 -16.688,0l1.780998,-15.431l-0.026001,-0.018997c0.381001,-5.375999 0.427002,-10.840004 -0.264999,-15.787003l-0.746998,0.105999c0.656998,4.759998 0.632,9.993999 0.287998,15.166004l-5.695,-4.049004c0.915001,-4.118996 -0.444,-12.288998 -1.716999,-17.183998c10.642998,-2.851002 19.029999,-2.793003 29.448997,0c-1.576996,6.065998 -2.347,11.514 -1.716995,17.183998" fill="white" id="svg_15"/>
    </g>
    <g transform="matrix(1.25,0,0,1.27941,221.093,-397.937)" id="svg_16">
     <path d="m97.252998,71.870003l-4.900002,3.482994c-0.297997,-4.449997 -0.319,-8.953995 0.247002,-13.049995l-0.640999,-0.092003c-0.597,4.257004 -0.556999,8.959 -0.228996,13.585999l-0.024002,0.016006l1.532997,13.278999c-3.984001,2.396996 -10.375,2.396996 -14.360001,0l1.532005,-13.278999l-0.021004,-0.016006c0.327003,-4.626999 0.367004,-9.328995 -0.228996,-13.585999l-0.642006,0.092003c0.566002,4.096001 0.542999,8.599998 0.248001,13.050995l-4.901001,-3.483994c0.798004,-3.591003 -0.390999,-10.540001 -1.477997,-14.788002c9.159996,-2.456001 16.378998,-2.402 25.342003,0c-1.352005,5.285 -2.029007,9.831001 -1.477005,14.788002" fill="white" id="svg_17"/>
    </g>
   </g>
  </g>
 </g>
</svg>