<svg width="80" height="80" viewBox="0 0 80 80" fill="none" xmlns="http://www.w3.org/2000/svg">
<path d="M38 26V36L34.6886 34.7762C33.0164 34.1468 32 33.5524 32 30.5105C32 28.028 33.7377 26 35.8689 26H38Z" fill="#C0321E"/>
<path d="M49 47.4895C49 49.972 47.2623 52 45.1311 52H43V42L46.3115 43.2238C47.9836 43.8531 49 44.4476 49 47.4895Z" fill="#C0321E"/>
<path d="M53.408 7H26.592C14.944 7 8 13.944 8 25.592V52.408C8 64.056 14.944 71 26.592 71H53.408C65.056 71 72 64.056 72 52.408V25.592C72 13.944 65.056 7 53.408 7ZM47.232 39C49.728 39.864 53.056 41.688 53.056 47.416C53.056 52.344 49.216 56.344 44.48 56.344H42.4V58.2C42.4 59.512 41.312 60.6 40 60.6C38.688 60.6 37.6 59.512 37.6 58.2V56.344H36.448C31.2 56.344 26.944 51.896 26.944 46.456C26.944 45.144 28 44.056 29.344 44.056C30.656 44.056 31.744 45.144 31.744 46.456C31.744 49.272 33.856 51.544 36.448 51.544H37.6V40.696L32.768 39C30.272 38.136 26.944 36.312 26.944 30.584C26.944 25.656 30.784 21.656 35.52 21.656H37.6V19.8C37.6 18.488 38.688 17.4 40 17.4C41.312 17.4 42.4 18.488 42.4 19.8V21.656H43.552C48.8 21.656 53.056 26.104 53.056 31.544C53.056 32.856 52 33.944 50.656 33.944C49.344 33.944 48.256 32.856 48.256 31.544C48.256 28.728 46.144 26.456 43.552 26.456H42.4V37.304L47.232 39Z" fill="#C0321E"/>
</svg>
