<svg id="Layer_1" data-name="Layer 1" xmlns="http://www.w3.org/2000/svg" viewBox="0 0 161.79 166.02"><defs><style>.cls-1,.cls-2,.cls-3,.cls-5{fill:#fff;}.cls-1,.cls-2,.cls-3,.cls-5,.cls-6{stroke:#bc321e;stroke-linecap:round;stroke-linejoin:round;}.cls-1,.cls-6{stroke-width:2.26px;}.cls-1{stroke-dasharray:0.45 4.52;}.cls-2{stroke-width:1.3px;}.cls-3{stroke-width:2.18px;}.cls-4,.cls-6{fill:#bc321e;}.cls-5{stroke-width:1.26px;}.cls-7{fill:none;stroke:#fff;stroke-miterlimit:10;stroke-width:1.43px;}</style></defs><rect class="cls-1" x="29.81" y="24.06" width="75.82" height="115.16"/><circle class="cls-2" cx="49.97" cy="52.92" r="7.07"/><line class="cls-3" x1="62.93" y1="79.55" x2="92.83" y2="79.55"/><line class="cls-3" x1="62.93" y1="60.5" x2="92.83" y2="60.5"/><line class="cls-3" x1="62.93" y1="69.88" x2="92.83" y2="69.88"/><line class="cls-3" x1="62.93" y1="50.27" x2="92.83" y2="50.27"/><line class="cls-3" x1="62.93" y1="88.68" x2="92.83" y2="88.68"/><line class="cls-3" x1="62.93" y1="97.81" x2="92.83" y2="97.81"/><line class="cls-3" x1="62.93" y1="106.94" x2="92.83" y2="106.94"/><line class="cls-3" x1="62.93" y1="115.75" x2="92.83" y2="115.75"/><circle class="cls-4" cx="50.05" cy="52.89" r="3.44"/><circle class="cls-2" cx="49.97" cy="82.24" r="7.07"/><circle class="cls-4" cx="50.05" cy="82.21" r="3.44"/><circle class="cls-2" cx="49.97" cy="111.57" r="7.07"/><circle class="cls-4" cx="50.05" cy="111.53" r="3.44"/><circle class="cls-5" cx="111.29" cy="96.63" r="32.59" transform="translate(-8.98 11.44) rotate(-5.65)"/><polygon class="cls-6" points="92.34 84.86 129.33 84.86 110.65 116.99 106.91 97.56 92.34 84.86"/><line class="cls-7" x1="105.8" y1="98.22" x2="130.25" y2="84.29"/></svg>