<svg id="Layer_1" data-name="Layer 1" xmlns="http://www.w3.org/2000/svg" viewBox="0 0 125.36 149.93"><defs><style>.cls-1,.cls-3{fill:#fff;stroke:#c43228;stroke-linecap:round;stroke-linejoin:round;}.cls-1{stroke-width:2.25px;stroke-dasharray:0.45 4.49;}.cls-2{fill:#bb321e;}.cls-3{stroke-width:3.4px;}</style></defs><path class="cls-1" d="M31,22c10.29-1.87,67.08,0,67.08,0s.71,14,13.56,13.79c2.1-1.4-.47,41.84-.47,41.84l-2.8,17.76-6.08,15.43-8,9.58-14,11.69-16.36,7-15-6.31-11.45-8.41L26.37,111.74,16.55,88.6l-.93-28.29.47-25S27.3,36.71,31,22Z"/><path class="cls-2" d="M37.34,31c8.18-.4,53.24,0,53.24,0s.56,11.57,10.76,11.38c.66,1.29.09,35.08.09,35.08a53.07,53.07,0,0,1-1.79,14.3c-2.07,7.63-3,10.08-6,14.31A46.26,46.26,0,0,1,87.13,114a58.16,58.16,0,0,1-10,7.9,45.76,45.76,0,0,1-13.65,5.78s-7.81-2.65-10.63-4.46a87,87,0,0,1-10.33-7.7c-4.54-4-10-12.44-10-12.44S26.7,93.28,25.85,86c-.61-5.1-.75-23.34-.75-23.34L25.47,42S34.37,43.13,37.34,31Z"/><circle class="cls-1" cx="63.44" cy="74.58" r="20.19"/><polyline class="cls-3" points="57.55 71.36 62.8 78.04 85.45 58.72"/></svg>