<svg id="Layer_1" data-name="Layer 1" xmlns="http://www.w3.org/2000/svg" viewBox="0 0 133.84 144.85"><defs><style>.cls-1,.cls-2,.cls-4{fill:#fff;stroke:#c43228;stroke-linecap:round;stroke-linejoin:round;}.cls-1{stroke-width:2.25px;stroke-dasharray:0.45 4.49;}.cls-2{stroke-width:2.06px;stroke-dasharray:0.41 4.11;}.cls-3{fill:#bb321e;}.cls-4{stroke-width:2.74px;}</style></defs><rect class="cls-1" x="32.51" y="18.11" width="45.47" height="34.1"/><rect class="cls-2" x="105.87" y="45.34" width="5.18" height="76.19"/><polygon class="cls-3" points="125.51 47.73 91.75 47.73 96.57 17.42 120 17.42 125.51 47.73"/><line class="cls-4" x1="99.33" y1="64.95" x2="99.33" y2="46.01"/><polygon class="cls-3" points="112.62 123.16 104.7 123.16 96.5 130.05 121.49 130.05 112.62 123.16"/><rect class="cls-1" x="24.93" y="62.89" width="60.97" height="66.82" rx="8.27"/><rect class="cls-1" x="13.56" y="87.34" width="20.17" height="43.02" rx="8.27"/><rect class="cls-1" x="77.29" y="87.34" width="20.17" height="43.02" rx="8.27"/><line class="cls-4" x1="37.21" y1="111.97" x2="74.48" y2="111.97"/><line class="cls-4" x1="43.84" y1="75.16" x2="43.84" y2="82.92"/><line class="cls-4" x1="40.03" y1="79.11" x2="47.37" y2="79.11"/><line class="cls-4" x1="67.14" y1="75.16" x2="67.14" y2="82.92"/><line class="cls-4" x1="63.33" y1="79.11" x2="70.67" y2="79.11"/><path class="cls-3" d="M61.8,29.6c-2.53-1.45-4.73-.1-6,2-1.23-2.06-3.44-3.41-6-2a4.09,4.09,0,0,0-1.7,5.66c.12.2.29.48.49.77a5.16,5.16,0,0,0,.73.85l0,0,.13.1.15.13,4.49,3.52L55.84,42l1.64-1.29L62,37.15l.15-.13.13-.1s0,0,0,0A4.73,4.73,0,0,0,63,36c.19-.29.37-.57.48-.77A4.08,4.08,0,0,0,61.8,29.6Z"/></svg>