<svg xmlns="http://www.w3.org/2000/svg" viewBox="0 0 512 512"><title>liberty_bell</title><path d="M389.875,378.177H142.968a12.754,12.754,0,0,1,0-25.508H389.874a12.754,12.754,0,0,1,.001,25.508ZM11.284,55.369a3.257,3.257,0,0,0,6.514,0A48.91,48.91,0,0,1,66.653,6.514a3.257,3.257,0,0,0,0-6.514A55.43116,55.43116,0,0,0,11.284,55.369ZM94.718,6.515a3.257,3.257,0,1,0,0-6.514H85.562a3.257,3.257,0,1,0,0,6.514ZM32.126,55.369v71.289a18.90366,18.90366,0,0,0,18.89,18.89H98.438a18.81411,18.81411,0,0,0,16.077-8.938l23.372-37.782a12.28115,12.28115,0,0,1,10.527-5.863h90.467L202.819,20.842H66.65A34.55423,34.55423,0,0,0,32.126,55.369ZM308.137,20.845H224.706l36.062,72.123h11.361ZM500.716,55.369a34.54973,34.54973,0,0,0-34.524-34.524H330.023L293.988,92.968h90.414a12.27125,12.27125,0,0,1,10.501,5.863l23.398,37.782a18.7815,18.7815,0,0,0,16.077,8.938h47.447a18.90368,18.90368,0,0,0,18.89-18.89Zm-4.012,332.683a3.25672,3.25672,0,0,0,3.257-3.257V370.854a3.257,3.257,0,0,0-6.514,0v13.941A3.25543,3.25543,0,0,0,496.704,388.052Zm-3.258,56.958a3.257,3.257,0,0,0,6.514,0V400.559a3.257,3.257,0,0,0-6.514,0Zm7.27,63.733a3.258,3.258,0,0,0-3.257-3.257H479.116V152.063H443.993V505.486H88.824V152.063H53.7V505.486H35.383a3.257,3.257,0,1,0,0,6.514H497.459A3.258,3.258,0,0,0,500.716,508.743ZM266.421,418.277a43.38277,43.38277,0,0,0,42.211-33.586H224.21A43.38363,43.38363,0,0,0,266.421,418.277Zm116.105-72.124H150.316c33.064-32.336,26.666-67.929,38.511-119.362a78.45268,78.45268,0,0,1,63.186-64.203,22.355,22.355,0,0,1-8.051-17.196c0-15.868,13.836-21.027,17.457-21.965L210.114,20.845h7.296l49.037,98.049,48.985-98.049h7.296l-51.278,102.609c3.179.755,17.431,5.681,17.431,21.94a22.35188,22.35188,0,0,1-8.051,17.196,78.45033,78.45033,0,0,1,63.186,64.203c11.868,51.533,5.433,87.01,38.51,119.36ZM282.368,145.392a15.9472,15.9472,0,1,0-15.947,15.868A15.95726,15.95726,0,0,0,282.368,145.392Z" style="fill:#c01e32"/></svg>