<svg width="80" height="80" viewBox="0 0 80 80" fill="none" xmlns="http://www.w3.org/2000/svg">
<path d="M51.7646 11.7646C36.1716 11.7646 23.5293 24.407 23.5293 39.9999C23.5293 55.5929 36.1716 68.2352 51.7646 68.2352C67.3575 68.2352 79.9999 55.5929 79.9999 39.9999C79.9999 24.407 67.3575 11.7646 51.7646 11.7646ZM61.3328 49.5682C59.9511 50.9499 57.6552 50.8811 56.2734 49.4994L49.2728 42.4988C48.9455 42.1749 48.6869 41.7823 48.5078 41.3473C48.3278 40.9167 48.2352 40.4614 48.2352 39.9999V25.8823C48.2352 23.9314 49.8137 22.3529 51.7646 22.3529C53.7155 22.3529 55.294 23.9314 55.294 25.8823V38.5388L61.3461 44.5908C62.7287 45.9735 62.7111 48.1891 61.3328 49.5682Z" fill="#C0321E"/>
<rect x="7.05859" y="22.9412" width="16.4706" height="5.88235" rx="2.94118" fill="#C0321E"/>
<rect x="7.05859" y="51.1765" width="16.4706" height="5.88235" rx="2.94118" fill="#C0321E"/>
<rect y="37.0588" width="18.8235" height="5.88235" rx="2.94118" fill="#C0321E"/>
</svg>
